<mxfile host="app.diagrams.net" modified="2021-04-13T21:25:55.248Z" agent="5.0 (Windows NT 10.0; Win64; x64) AppleWebKit/537.36 (KHTML, like Gecko) Chrome/89.0.4389.114 Safari/537.36" etag="E473AqJJckDTlcfYA2kS" version="14.5.7" type="github">
  <diagram id="REG2GWGOrpyXZ2wY1BBL" name="Page-1">
    <mxGraphModel dx="1209" dy="643" grid="1" gridSize="10" guides="1" tooltips="1" connect="1" arrows="1" fold="1" page="1" pageScale="1" pageWidth="827" pageHeight="1169" math="0" shadow="0">
      <root>
        <mxCell id="0" />
        <mxCell id="1" parent="0" />
        <mxCell id="_RyLIi_xfBxSePMbdY6R-1" value="" style="ellipse;whiteSpace=wrap;html=1;" vertex="1" parent="1">
          <mxGeometry x="20" y="320" width="220" height="80" as="geometry" />
        </mxCell>
        <mxCell id="_RyLIi_xfBxSePMbdY6R-2" value="" style="ellipse;whiteSpace=wrap;html=1;" vertex="1" parent="1">
          <mxGeometry x="800" y="320" width="220" height="80" as="geometry" />
        </mxCell>
        <mxCell id="_RyLIi_xfBxSePMbdY6R-3" value="" style="endArrow=classic;html=1;exitX=1;exitY=0.5;exitDx=0;exitDy=0;" edge="1" parent="1" source="_RyLIi_xfBxSePMbdY6R-1">
          <mxGeometry width="50" height="50" relative="1" as="geometry">
            <mxPoint x="390" y="510" as="sourcePoint" />
            <mxPoint x="440" y="360" as="targetPoint" />
          </mxGeometry>
        </mxCell>
        <mxCell id="_RyLIi_xfBxSePMbdY6R-6" value="" style="whiteSpace=wrap;html=1;aspect=fixed;" vertex="1" parent="1">
          <mxGeometry x="440" y="330" width="60" height="60" as="geometry" />
        </mxCell>
        <mxCell id="_RyLIi_xfBxSePMbdY6R-7" value="" style="endArrow=classic;html=1;entryX=0;entryY=0.5;entryDx=0;entryDy=0;" edge="1" parent="1" source="_RyLIi_xfBxSePMbdY6R-6" target="_RyLIi_xfBxSePMbdY6R-2">
          <mxGeometry width="50" height="50" relative="1" as="geometry">
            <mxPoint x="580" y="510" as="sourcePoint" />
            <mxPoint x="630" y="460" as="targetPoint" />
          </mxGeometry>
        </mxCell>
      </root>
    </mxGraphModel>
  </diagram>
</mxfile>
